<?xml version="1.0" encoding="utf-8"?>
<!-- Generator: Adobe Illustrator 27.3.1, SVG Export Plug-In . SVG Version: 6.00 Build 0)  -->
<svg version="1.1" id="Layer_1" xmlns="http://www.w3.org/2000/svg" xmlns:xlink="http://www.w3.org/1999/xlink" x="0px" y="0px"
	 viewBox="0 0 263.9 100" style="enable-background:new 0 0 263.9 100;" xml:space="preserve">
<style type="text/css">
	.st0{fill:#074FA5;}
	.st1{fill:#D40055;}
	.st2{fill:#FFFFFF;}
</style>
<g>
	<g>
		<path class="st0" d="M90.1,10.2v80.3H9.9V10.2H50H90.1 M94.4,5.9H50H5.6v88.8h88.8V5.9L94.4,5.9z"/>
		<g>
			<path class="st1" d="M80.1,20.2v60.2H19.9V20.2H50H80.1 M84.3,16H50H15.7v68.7h68.7V16L84.3,16z"/>
		</g>
		<g>
			<g>
				<g>
					<rect x="43.3" y="0.8" class="st2" width="13.4" height="10.2"/>
				</g>
				<g>
					<rect x="43.3" y="88.9" class="st2" width="13.4" height="10.3"/>
				</g>
			</g>
			<g>
				<g>
					<rect x="89" y="43.3" class="st2" width="10.2" height="13.4"/>
				</g>
				<g>
					<rect x="0.8" y="43.3" class="st2" width="10.2" height="13.4"/>
				</g>
			</g>
		</g>
		<g>
			<g>
				<g>
					<rect x="47.9" class="st0" width="4.2" height="10.4"/>
				</g>
				<g>
					<rect x="47.9" y="89.6" class="st0" width="4.2" height="10.4"/>
				</g>
			</g>
			<g>
				<g>
					<rect x="89.6" y="47.9" class="st0" width="10.4" height="4.2"/>
				</g>
				<g>
					<rect y="47.9" class="st0" width="10.4" height="4.2"/>
				</g>
			</g>
		</g>
	</g>
	<g>
		<path class="st0" d="M126.6,33.3v10.5c0,1.5-0.5,2.7-1.6,3.7c-1,1-2.3,1.5-3.8,1.5h-6.8V20.3h3.3v6.4l5.5,1.9
			c1,0.3,1.8,0.9,2.4,1.7C126.3,31.1,126.6,32.1,126.6,33.3z M117.8,46.5h2.8c0.8,0,1.4-0.3,2-0.8c0.5-0.5,0.8-1.2,0.8-1.9v-9.9
			c0-1-0.1-1.8-0.4-2.3c-0.3-0.5-0.8-0.8-1.5-1l-3.6-1.2V46.5z"/>
		<path class="st0" d="M138.4,27.4v2.4c-0.7,0-2.3,0.6-4.6,1.7V49h-3.3V27.7h2.5l0.4,1.5c1.7-0.8,2.8-1.3,3.4-1.5
			C137.5,27.5,138,27.4,138.4,27.4z"/>
		<path class="st0" d="M142.1,27.7h4.9c1.5,0,2.7,0.4,3.6,1.3c0.9,0.9,1.3,2.1,1.3,3.6V49h-6.1c-1.5,0-2.8-0.5-3.8-1.6
			c-1-1.1-1.6-2.4-1.6-4v-2.1c0-1.3,0.3-2.4,1-3.2c0.6-0.9,1.4-1.5,2.4-1.8l5.1-1.9v-1.9c0-0.7-0.2-1.2-0.6-1.6
			c-0.4-0.4-0.9-0.6-1.5-0.6h-4.6V27.7z M143.3,41.5v2.3c0,0.7,0.3,1.4,0.8,1.9c0.5,0.5,1.2,0.8,2,0.8h2.7v-9.6l-3.6,1.4
			c-0.7,0.3-1.2,0.6-1.5,1.1C143.5,39.8,143.3,40.5,143.3,41.5z"/>
		<path class="st0" d="M156.4,27.7h2.5l0.4,1.2c0.4-0.1,1-0.3,1.8-0.5c0.8-0.2,1.4-0.4,1.8-0.5c1.1-0.3,2-0.5,2.9-0.5
			c0.9,0,1.5,0.3,2,1c0.5,0.7,0.7,1.6,0.7,2.7V49h-3.3V32.1c0-0.8-0.1-1.3-0.2-1.7c-0.1-0.3-0.3-0.5-0.7-0.5c-0.3,0-1.9,0.4-4.7,1.3
			V49h-3.3V27.7z"/>
		<path class="st0" d="M181.6,20.3h3.3V49h-6.3c-1.7,0-3.1-0.5-4.2-1.5c-1.1-1-1.6-2.4-1.6-4.1V33.2c0-1.2,0.3-2.2,1-3
			c0.6-0.8,1.4-1.4,2.4-1.7l5.5-1.9V20.3z M181.6,46.5V29.3l-3.6,1.2c-0.7,0.2-1.2,0.6-1.5,1c-0.3,0.5-0.4,1.2-0.4,2.3v9.5
			c0,1,0.3,1.7,0.9,2.3c0.6,0.5,1.4,0.8,2.3,0.8H181.6z"/>
		<path class="st0" d="M195.9,27.7h2.5l0.4,1.2c0.4-0.1,1-0.3,1.8-0.5c0.8-0.2,1.4-0.4,1.8-0.5c1.1-0.3,2-0.5,2.9-0.5
			c0.9,0,1.5,0.3,2,1c0.5,0.7,0.7,1.6,0.7,2.7V49h-3.3V32.1c0-0.8-0.1-1.3-0.2-1.7c-0.1-0.3-0.3-0.5-0.7-0.5c-0.3,0-1.9,0.4-4.7,1.3
			V49h-3.3V27.7z"/>
		<path class="st0" d="M213.1,27.7h4.9c1.5,0,2.7,0.4,3.6,1.3c0.9,0.9,1.3,2.1,1.3,3.6V49h-6.1c-1.5,0-2.8-0.5-3.8-1.6
			c-1.1-1.1-1.6-2.4-1.6-4v-2.1c0-1.3,0.3-2.4,1-3.2c0.6-0.9,1.4-1.5,2.4-1.8l5.1-1.9v-1.9c0-0.7-0.2-1.2-0.6-1.6
			c-0.4-0.4-0.9-0.6-1.5-0.6h-4.6V27.7z M214.4,41.5v2.3c0,0.7,0.3,1.4,0.8,1.9c0.5,0.5,1.2,0.8,2,0.8h2.7v-9.6l-3.6,1.4
			c-0.7,0.3-1.2,0.6-1.5,1.1C214.5,39.8,214.4,40.5,214.4,41.5z"/>
		<path class="st0" d="M239.1,28.9c2.8-1,4.8-1.6,6-1.6c2.1,0,3.2,1.2,3.2,3.7V49h-3.3V32.1c0-0.8-0.1-1.3-0.2-1.7
			c-0.1-0.3-0.3-0.5-0.7-0.5s-1.9,0.4-4.7,1.3V49h-3.3V32.1c0-0.8-0.1-1.3-0.2-1.7c-0.1-0.3-0.3-0.5-0.7-0.5c-0.3,0-1.9,0.4-4.8,1.3
			V49h-3.3V27.7h2.5l0.4,1.2c0.4-0.1,1-0.3,1.8-0.5c0.8-0.2,1.4-0.4,1.8-0.5c1.1-0.3,2-0.5,2.7-0.5
			C237.9,27.4,238.7,27.9,239.1,28.9z"/>
		<path class="st0" d="M257.6,46.5h4.4V49h-4.9c-1.5,0-2.7-0.5-3.6-1.4c-0.9-0.9-1.3-2.1-1.3-3.6V33.1c0-1.8,0.5-3.2,1.5-4.2
			c1-1,2.4-1.5,4.4-1.5c1.9,0,3.4,0.5,4.4,1.5c1,1,1.5,2.4,1.5,4.2V35c0,2-1.2,3.3-3.6,3.9l-4.8,1.4v4c0,0.7,0.2,1.2,0.6,1.6
			C256.5,46.3,257,46.5,257.6,46.5z M255.5,32.4v5.3c0.6-0.2,1.3-0.4,2-0.6c0.7-0.2,1.2-0.3,1.5-0.4c0.3-0.1,0.5-0.2,0.9-0.3
			c0.3-0.1,0.5-0.2,0.6-0.4c0.2-0.4,0.2-0.9,0.2-1.4v-2.3c0-1.7-0.8-2.5-2.5-2.5c-0.8,0-1.4,0.2-1.9,0.7
			C255.7,30.9,255.5,31.6,255.5,32.4z"/>
	</g>
	<g>
		<path class="st0" d="M117,70.1c0-0.8-0.5-1.5-1.5-2.3c-0.4-0.3-0.8-0.6-1.2-1c-1-0.8-1.5-1.9-1.5-3.1c0-0.9,0.3-1.6,0.9-2.2
			c0.6-0.6,1.4-0.9,2.4-0.9h2.2v1.5h-1.8c-1.2,0-1.8,0.6-1.8,1.7c0,0.7,0.5,1.4,1.5,2.1c0.4,0.3,0.8,0.6,1.2,1
			c0.4,0.3,0.7,0.8,1,1.4c0.3,0.6,0.4,1.2,0.4,1.9c0,1.2-0.3,2.1-0.9,2.7c-0.6,0.6-1.5,0.9-2.7,0.9h-2.5v-1.5h2.2
			C116.3,72.2,117,71.5,117,70.1z"/>
		<path class="st0" d="M121.2,73.7V56h2v17.7H121.2z"/>
		<path class="st0" d="M133.1,70.5c0,1.1-0.3,1.9-1,2.5c-0.6,0.6-1.6,0.9-2.7,0.9s-2.1-0.3-2.7-0.9c-0.7-0.6-1-1.4-1-2.5v-6.7
			c0-1.1,0.3-1.9,1-2.5c0.7-0.6,1.6-0.9,2.7-0.9s2.1,0.3,2.7,0.9c0.7,0.6,1,1.4,1,2.5V70.5z M127.7,70.5c0,0.6,0.2,1,0.5,1.4
			c0.3,0.3,0.7,0.5,1.3,0.5c0.5,0,1-0.2,1.3-0.5c0.3-0.3,0.5-0.8,0.5-1.4v-6.7c0-0.6-0.2-1-0.5-1.4c-0.3-0.3-0.7-0.5-1.3-0.5
			c-0.5,0-1,0.2-1.3,0.5c-0.3,0.3-0.5,0.8-0.5,1.4V70.5z"/>
		<path class="st0" d="M142.7,60.6v14.1c0,0.9-0.3,1.7-0.8,2.3c-0.5,0.6-1.2,0.8-2.2,0.8h-3v-1.5h2.6c0.4,0,0.7-0.1,0.9-0.4
			c0.2-0.3,0.3-0.6,0.3-1v-1.1h-2.1c-0.9,0-1.7-0.3-2.4-0.9c-0.6-0.6-1-1.4-1-2.3v-6.8c0-0.9,0.3-1.7,1-2.3c0.6-0.6,1.4-0.9,2.4-0.9
			H142.7z M140.6,62.1h-1.7c-0.5,0-0.9,0.2-1.2,0.5c-0.3,0.3-0.5,0.7-0.5,1.2v6.8c0,0.5,0.2,0.9,0.5,1.2c0.3,0.3,0.7,0.5,1.2,0.5
			h1.7V62.1z"/>
		<path class="st0" d="M145.8,60.6h3c0.9,0,1.7,0.3,2.2,0.8c0.5,0.5,0.8,1.3,0.8,2.2v10.1h-3.8c-0.9,0-1.7-0.3-2.4-1
			c-0.6-0.7-1-1.5-1-2.5V69c0-0.8,0.2-1.5,0.6-2c0.4-0.5,0.9-0.9,1.5-1.1l3.1-1.2v-1.2c0-0.4-0.1-0.7-0.4-1
			c-0.2-0.3-0.6-0.4-0.9-0.4h-2.9V60.6z M146.6,69.1v1.4c0,0.5,0.2,0.8,0.5,1.2c0.3,0.3,0.7,0.5,1.2,0.5h1.7v-5.9l-2.2,0.8
			c-0.4,0.2-0.7,0.4-0.9,0.7C146.7,68.1,146.6,68.5,146.6,69.1z"/>
		<path class="st0" d="M154.7,60.6h1.6l0.2,0.7c0.2-0.1,0.6-0.2,1.1-0.3c0.5-0.2,0.9-0.3,1.1-0.3c0.7-0.2,1.3-0.3,1.8-0.3
			c0.5,0,0.9,0.2,1.2,0.6c0.3,0.4,0.4,1,0.4,1.6v11.1h-2V63.3c0-0.5,0-0.8-0.1-1c-0.1-0.2-0.2-0.3-0.4-0.3c-0.2,0-1.2,0.3-2.9,0.8
			v10.9h-2V60.6z"/>
		<path class="st0" d="M168.7,56h2v5.2c0.3-0.1,0.6-0.2,1.1-0.3s0.8-0.2,1-0.3c0.6-0.2,1.1-0.2,1.7-0.2c0.6,0,1,0.2,1.3,0.6
			s0.4,1,0.4,1.6v11.1h-2V63.3c0-0.5,0-0.8-0.1-1c-0.1-0.2-0.2-0.3-0.4-0.3s-1.2,0.3-2.9,0.8v10.9h-2V56z"/>
		<path class="st0" d="M182.2,72.2h2.7v1.5h-3c-0.9,0-1.7-0.3-2.2-0.8c-0.6-0.6-0.8-1.3-0.8-2.3v-6.7c0-1.1,0.3-2,0.9-2.6
			c0.6-0.6,1.5-0.9,2.7-0.9c1.2,0,2.1,0.3,2.7,0.9c0.6,0.6,0.9,1.5,0.9,2.6v1.2c0,1.2-0.7,2-2.2,2.4l-3,0.8v2.5c0,0.4,0.1,0.7,0.4,1
			C181.5,72.1,181.8,72.2,182.2,72.2z M180.9,63.5v3.3c0.4-0.1,0.8-0.2,1.2-0.3c0.4-0.1,0.7-0.2,0.9-0.2c0.2-0.1,0.3-0.1,0.5-0.2
			c0.2-0.1,0.3-0.2,0.3-0.3c0.1-0.3,0.2-0.6,0.2-0.9v-1.4c0-1-0.5-1.6-1.6-1.6c-0.5,0-0.9,0.1-1.2,0.4C181,62.6,180.9,63,180.9,63.5
			z"/>
		<path class="st0" d="M193,60.4v1.5c-0.4,0-1.4,0.4-2.9,1.1v10.8h-2V60.6h1.6l0.2,0.9c1-0.5,1.7-0.8,2.1-0.9
			C192.4,60.5,192.7,60.4,193,60.4z"/>
		<path class="st0" d="M197.8,72.2h2.7v1.5h-3c-0.9,0-1.7-0.3-2.2-0.8c-0.6-0.6-0.8-1.3-0.8-2.3v-6.7c0-1.1,0.3-2,0.9-2.6
			c0.6-0.6,1.5-0.9,2.7-0.9c1.2,0,2.1,0.3,2.7,0.9c0.6,0.6,0.9,1.5,0.9,2.6v1.2c0,1.2-0.7,2-2.2,2.4l-3,0.8v2.5c0,0.4,0.1,0.7,0.4,1
			C197.1,72.1,197.4,72.2,197.8,72.2z M196.5,63.5v3.3c0.4-0.1,0.8-0.2,1.2-0.3c0.4-0.1,0.7-0.2,0.9-0.2c0.2-0.1,0.3-0.1,0.5-0.2
			c0.2-0.1,0.3-0.2,0.3-0.3c0.1-0.3,0.2-0.6,0.2-0.9v-1.4c0-1-0.5-1.6-1.6-1.6c-0.5,0-0.9,0.1-1.2,0.4
			C196.7,62.6,196.5,63,196.5,63.5z"/>
	</g>
</g>
</svg>
