<?xml version="1.0" encoding="utf-8"?>
<!-- Generator: Adobe Illustrator 27.3.1, SVG Export Plug-In . SVG Version: 6.00 Build 0)  -->
<svg version="1.1" id="Layer_1" xmlns="http://www.w3.org/2000/svg" xmlns:xlink="http://www.w3.org/1999/xlink" x="0px" y="0px"
	 viewBox="0 0 100 100" style="enable-background:new 0 0 100 100;" xml:space="preserve">
<style type="text/css">
	.st0{fill:#FFFFFF;}
	.st1{fill:#074FA5;}
	.st2{fill:#D40055;}
</style>
<rect x="-11.3" y="-11" class="st0" width="118.5" height="116.4"/>
<g>
	<path class="st1" d="M90.1,10.2v80.3H9.9V10.2H50H90.1 M94.4,5.9H50H5.6v88.8h88.8V5.9L94.4,5.9z"/>
	<g>
		<path class="st2" d="M80.1,20.2v60.2H19.9V20.2H50H80.1 M84.3,16H50H15.7v68.7h68.7L84.3,16L84.3,16z"/>
	</g>
	<g>
		<g>
			<g>
				<rect x="43.3" y="0.8" class="st0" width="13.4" height="10.2"/>
			</g>
			<g>
				<rect x="43.3" y="88.9" class="st0" width="13.4" height="10.3"/>
			</g>
		</g>
		<g>
			<g>
				<rect x="89" y="43.3" class="st0" width="10.2" height="13.4"/>
			</g>
			<g>
				<rect x="0.8" y="43.3" class="st0" width="10.2" height="13.4"/>
			</g>
		</g>
	</g>
	<g>
		<g>
			<g>
				<rect x="47.9" class="st1" width="4.2" height="10.4"/>
			</g>
			<g>
				<rect x="47.9" y="89.6" class="st1" width="4.2" height="10.4"/>
			</g>
		</g>
		<g>
			<g>
				<rect x="89.6" y="47.9" class="st1" width="10.4" height="4.2"/>
			</g>
			<g>
				<rect y="47.9" class="st1" width="10.4" height="4.2"/>
			</g>
		</g>
	</g>
</g>
</svg>
