<?xml version="1.0" encoding="utf-8"?>
<!-- Generator: Adobe Illustrator 27.3.1, SVG Export Plug-In . SVG Version: 6.00 Build 0)  -->
<svg version="1.1" id="Layer_1" xmlns="http://www.w3.org/2000/svg" xmlns:xlink="http://www.w3.org/1999/xlink" x="0px" y="0px"
	 viewBox="0 0 100 100" style="enable-background:new 0 0 100 100;" xml:space="preserve">
<style type="text/css">
	.st0{fill:#FFFFFF;}
	.st1{fill:#074FA5;}
	.st2{fill:#D40055;}
</style>
<circle class="st0" cx="50" cy="50" r="50"/>
<g>
	<path class="st1" d="M74.8,25.4V75H25.2V25.4H50H74.8 M77.5,22.7H50H22.5v54.9h54.9V22.7L77.5,22.7z"/>
	<g>
		<path class="st2" d="M68.6,31.6v37.2H31.4V31.6H50H68.6 M71.2,29H50H28.8v42.5h42.5L71.2,29L71.2,29z"/>
	</g>
	<g>
		<g>
			<g>
				<rect x="45.9" y="19.6" class="st0" width="8.3" height="6.3"/>
			</g>
			<g>
				<rect x="45.9" y="74.1" class="st0" width="8.3" height="6.4"/>
			</g>
		</g>
		<g>
			<g>
				<rect x="74.1" y="45.9" class="st0" width="6.3" height="8.3"/>
			</g>
			<g>
				<rect x="19.6" y="45.9" class="st0" width="6.3" height="8.3"/>
			</g>
		</g>
	</g>
	<g>
		<g>
			<g>
				<rect x="48.7" y="19.1" class="st1" width="2.6" height="6.4"/>
			</g>
			<g>
				<rect x="48.7" y="74.5" class="st1" width="2.6" height="6.4"/>
			</g>
		</g>
		<g>
			<g>
				<rect x="74.5" y="48.7" class="st1" width="6.4" height="2.6"/>
			</g>
			<g>
				<rect x="19.1" y="48.7" class="st1" width="6.4" height="2.6"/>
			</g>
		</g>
	</g>
</g>
</svg>
